<svg width="358" height="98" viewBox="0 0 358 98" fill="none" xmlns="http://www.w3.org/2000/svg">
<path fill-rule="evenodd" clip-rule="evenodd" d="M114.727 1.25977C99.9421 2.95203 88.5832 5.12514 85.9054 6.77471C84.8538 7.4223 84.2406 7.55279 84.5428 7.06388C84.845 6.57497 84.774 6.17465 84.3856 6.17465C83.6024 6.17465 75.619 8.40254 73.7157 9.15161C72.5359 9.61636 71.6092 9.78308 68.6317 10.0642C67.7526 10.1472 67.402 10.5708 67.7485 11.1322C68.0958 11.6928 67.9709 11.8434 67.4351 11.5124C66.1224 10.7013 59.1294 12.6408 59.7499 13.6436C60.0763 14.1712 59.625 14.3146 58.5347 14.0294C57.5814 13.7806 55.0769 14.2807 52.9697 15.1418C50.5441 16.1333 49.9422 16.5916 51.3298 16.3902C52.5748 16.2098 53.3178 16.4015 53.0503 16.834C52.7916 17.2529 51.3967 17.3737 49.9511 17.1031C46.7777 16.5078 43.4303 17.6628 41.5302 20.0091C40.5632 21.202 39.9483 21.4493 39.5486 20.8033C39.1949 20.2306 39.5092 19.8674 40.3609 19.8674C41.1256 19.8674 41.5761 19.6918 41.3609 19.4775C41.1466 19.2633 37.3697 19.9842 32.9674 21.0788C28.5652 22.1742 23.0598 23.0747 20.7326 23.0795C18.4054 23.0852 16.502 23.3727 16.502 23.7199C16.502 24.0662 13.9636 24.2064 10.8612 24.0316C5.81593 23.7464 5.20673 23.8713 5.09311 25.2132C4.90454 27.4507 4.9819 28.4479 5.53631 30.9166L6.03914 33.1574L4.85297 31.1437L3.66599 29.1301L3.63698 31.4595C3.62167 32.7409 2.92141 36.1843 2.08173 39.1113C-0.241464 47.2093 -0.518673 49.4589 0.74728 49.9446C1.35165 50.1766 2.4234 49.728 3.13011 48.9475C4.62411 47.2971 4.83524 46.0922 3.48387 46.9266C2.95122 47.256 2.77071 47.1505 3.06242 46.6801C3.34124 46.2275 4.40493 46.0172 5.4251 46.2122C6.6145 46.4393 7.82244 45.9673 8.79265 44.8961C9.62427 43.977 10.6831 43.2255 11.1441 43.2255C12.8033 43.2255 18.0806 38.9905 17.5423 38.0916C17.2434 37.593 17.5794 37.655 18.2901 38.2309C19.2861 39.0364 19.7189 39.0541 20.1806 38.3074C20.5859 37.6526 20.4385 37.5495 19.7253 37.9901C19.0218 38.4242 18.8647 38.3276 19.2539 37.6985C19.5746 37.1798 20.1411 36.9438 20.5142 37.1742C20.8865 37.4045 21.7987 37.3594 22.5409 37.0751C23.6287 36.6579 23.6819 36.4098 22.8148 35.7944C22.0614 35.2596 22.3201 35.1597 23.6819 35.4626C24.9189 35.7364 26.8472 35.1766 28.9907 33.9209C30.8425 32.8368 32.7861 31.9492 33.3099 31.9492C33.8337 31.9492 35.6654 31.064 37.381 29.9815C39.0966 28.8989 40.6744 28.1877 40.8871 28.4003C41.456 28.9698 45.5118 26.9819 45.5118 26.1338C45.5118 25.7359 45.8744 25.6344 46.3176 25.9083C46.7608 26.1821 47.1234 26.0565 47.1234 25.6288C47.1234 25.2011 47.9051 25.0553 48.8608 25.305C50.1557 25.6433 50.4321 25.4894 49.9454 24.7025C49.5103 23.9994 49.6062 23.8399 50.2291 24.2249C51.5474 25.0392 54.5128 23.9623 53.8601 22.9063C53.5539 22.4118 53.6941 22.2652 54.1841 22.5681C55.3477 23.2865 59.4284 21.6772 58.8433 20.73C58.5879 20.3168 58.8031 19.7167 59.322 19.3962C59.8901 19.045 60.0505 19.161 59.7249 19.687C58.5943 21.5153 60.9844 21.4775 66.6429 19.5782C69.8679 18.4957 74.864 16.9887 77.7448 16.2299C80.6256 15.4712 83.5266 14.6545 84.1914 14.4161C84.8562 14.1768 86.1254 14.0536 87.0118 14.1414C88.3793 14.2767 88.4406 14.1623 87.4147 13.3835C86.3994 12.6126 86.4469 12.545 87.7129 12.9566C89.4527 13.5228 98.6963 11.7854 98.6963 10.8922C98.6963 10.5636 99.5118 10.4556 100.509 10.6522C101.507 10.8495 106.789 10.2607 112.25 9.34411C117.709 8.42751 123.782 7.62527 125.747 7.56084C127.711 7.4972 129.318 7.24993 129.319 7.01071C129.32 6.30272 163.114 6.93984 168.803 7.75496C171.684 8.16735 176.568 9.04046 179.657 9.6953C182.746 10.3493 185.555 10.7102 185.899 10.4975C187.231 9.67516 189.743 9.53099 190.188 10.2511C190.445 10.6675 190 11.0315 189.198 11.0605C187.548 11.1201 194.739 13.1853 200.23 14.2292C202.225 14.6078 206.558 15.6702 209.859 16.5908C215.49 18.1598 218.764 18.1961 218.764 16.6891C218.764 15.8167 213.815 13.787 212.439 14.0939C211.838 14.2284 211.589 13.9513 211.882 13.4777C212.174 13.0049 212.05 12.6183 211.607 12.6183C211.164 12.6183 210.577 12.9807 210.303 13.4237C210.029 13.8667 209.373 14.2002 208.846 14.1656C208.153 14.1197 208.167 13.9884 208.893 13.696C210.749 12.9469 209.926 11.891 207.071 11.3553C205.515 11.0638 204.057 10.5257 203.831 10.16C203.432 9.51487 201.962 9.63408 198.353 10.6047C196.734 11.0396 196.745 10.9913 198.509 9.95707C200.411 8.84071 200.409 8.83749 196.985 7.46822C194.865 6.62007 192.6 6.28419 191.051 6.58704C189.519 6.88748 188.94 6.80372 189.561 6.3728C190.232 5.90644 188.591 5.20086 184.726 4.29312C166.784 0.0773692 136.52 -1.23472 114.727 1.25977ZM105.73 3.43934C105.463 3.70675 104.767 3.73574 104.186 3.50296C103.543 3.24602 103.734 3.05513 104.673 3.01647C105.522 2.98183 105.998 3.17193 105.73 3.43934ZM176.056 3.75829C176.056 4.20129 175.896 4.56375 175.7 4.56375C175.504 4.56375 175.121 4.20129 174.847 3.75829C174.573 3.31529 174.733 2.95284 175.202 2.95284C175.671 2.95284 176.056 3.31529 176.056 3.75829ZM141.187 5.8557C140.919 6.12311 140.224 6.1521 139.643 5.91932C139 5.66238 139.191 5.47149 140.129 5.43283C140.979 5.39819 141.454 5.58829 141.187 5.8557ZM148.456 5.92415C147.681 6.12713 146.411 6.12713 145.636 5.92415C144.86 5.72199 145.495 5.55606 147.046 5.55606C148.597 5.55606 149.231 5.72199 148.456 5.92415ZM98.4779 6.66115C98.2104 6.92856 97.515 6.95755 96.934 6.72478C96.2909 6.46784 96.4819 6.27694 97.4207 6.23828C98.27 6.20365 98.7455 6.39374 98.4779 6.66115ZM186.313 8.27206C186.045 8.53947 185.35 8.56846 184.769 8.33569C184.126 8.07875 184.317 7.88785 185.256 7.84919C186.105 7.81455 186.581 8.00465 186.313 8.27206ZM78.3323 13.1048C78.0647 13.3722 77.3693 13.4012 76.7883 13.1684C76.1452 12.9115 76.3362 12.7206 77.275 12.6819C78.1244 12.6473 78.5998 12.8374 78.3323 13.1048ZM202.849 13.1515C202.296 13.3754 201.389 13.3754 200.835 13.1515C200.281 12.9284 200.734 12.7456 201.842 12.7456C202.95 12.7456 203.404 12.9284 202.849 13.1515ZM56.7933 15.0346C56.7933 15.4776 56.4089 15.8401 55.9399 15.8401C55.471 15.8401 55.3106 15.4776 55.5846 15.0346C55.8586 14.5917 56.2421 14.2292 56.438 14.2292C56.6338 14.2292 56.7933 14.5917 56.7933 15.0346ZM60.3382 17.5831C60.1327 17.915 59.4324 17.9818 58.7821 17.7321C57.1414 17.1031 57.3042 16.7237 59.1552 16.863C60.011 16.9275 60.5428 17.2513 60.3382 17.5831ZM95.9702 17.9657C83.0318 20.7389 77.2057 26.4568 80.4306 33.2162C82.1438 36.8069 87.1528 39.8507 93.7356 41.3021C105.468 43.8892 141.433 43.6315 191.366 40.603L207.886 39.601L181.294 39.0573C119.148 37.7879 91.7541 33.5335 98.407 26.1862C101.034 23.2841 116.244 19.7337 131.332 18.4989C138.359 17.9246 138.459 17.8884 134.556 17.3463C127.001 16.2968 101.874 16.7003 95.9702 17.9657ZM218.661 17.9834C217.669 19.1835 217.781 19.2786 219.744 18.9065C220.947 18.6777 222.035 18.7526 222.161 19.0724C222.288 19.393 223.297 19.9254 224.405 20.2572C225.944 20.7171 225.698 20.3619 223.363 18.7526C219.743 16.2589 220.047 16.3081 218.661 17.9834ZM63.2399 19.8674C62.5751 20.2967 61.6686 20.6479 61.2254 20.6479C60.7822 20.6479 60.9635 20.2967 61.6283 19.8674C62.2931 19.4381 63.1996 19.0869 63.6428 19.0869C64.0861 19.0869 63.9047 19.4381 63.2399 19.8674ZM265.502 21.1658C263.951 21.3502 257.243 22.0429 250.595 22.705C235.566 24.2015 222.011 26.1757 220.248 27.1245C219.512 27.5208 217.553 27.6239 215.892 27.3549C213.732 27.0045 213.035 27.1277 213.443 27.7866C213.805 28.373 213.581 28.5437 212.828 28.2546C211.669 27.8099 198.595 29.8961 196.201 30.9077C195.536 31.188 193.542 31.4748 191.769 31.5432C189.996 31.6125 186.37 32.157 183.711 32.7538L178.876 33.8388L182.502 34.5516C187.055 35.4457 212.262 34.91 212.988 33.9032C213.284 33.4932 215.519 33.0704 217.956 32.9641C220.392 32.8577 222.499 32.4308 222.637 32.016C222.776 31.6004 224.072 31.4522 225.519 31.6874C227.741 32.0475 233.939 31.1107 242.939 29.0528C244.047 28.7999 246.586 28.5977 248.58 28.6041C251.635 28.6138 251.889 28.5051 250.192 27.9147C248.86 27.4515 249.886 27.3694 253.214 27.6722C255.984 27.9235 258.251 27.8116 258.252 27.4217C258.257 26.075 287.796 26.1008 298.517 27.4564C310.352 28.9529 310.586 28.9618 309.017 27.8333C308.011 27.1108 308.056 27.0448 309.285 27.4435C310.096 27.7069 311.115 27.9219 311.548 27.9219C311.981 27.9219 312.113 28.2819 311.841 28.7217C311.564 29.1688 312.167 29.495 313.203 29.4603C315.477 29.3846 325.909 32.0305 338.027 35.7566C338.988 36.0522 339.016 35.9708 338.161 35.3587C337.285 34.7328 337.322 34.4993 338.352 34.1038C339.088 33.8219 339.539 34.0071 339.427 34.5468C339.176 35.7622 345.071 38.6272 347.863 38.6465C349.062 38.6546 349.907 38.8817 349.74 39.1516C349.573 39.4206 351.448 40.4322 353.905 41.3988C356.361 42.3653 358.197 42.9815 357.983 42.7672C355.852 40.6376 342.814 33.0084 336.802 30.3721C330.437 27.582 328.92 27.1898 327.483 27.9582C326.195 28.6476 325.536 28.6452 324.846 27.9485C324.152 27.2502 324.306 27.1664 325.467 27.6086C326.494 27.9992 326.827 27.901 326.465 27.3146C325.498 25.7504 318.05 23.7336 315.264 24.2821C313.289 24.6711 312.941 24.5865 313.852 23.9397C314.809 23.2599 314.559 23.1037 312.643 23.1891C311.314 23.2487 308.594 22.862 306.6 22.3305C303.043 21.3832 271.239 20.4819 265.502 21.1658ZM38.4761 22.0067C37.9305 22.2274 36.8427 22.241 36.0586 22.0365C35.2745 21.8319 35.721 21.6515 37.0506 21.6354C38.3802 21.6192 39.0216 21.786 38.4761 22.0067ZM293.919 22.0453C292.928 22.2362 291.115 22.241 289.89 22.0566C288.665 21.8713 289.476 21.7151 291.692 21.7086C293.908 21.703 294.91 21.8544 293.919 22.0453ZM266.896 22.7702C266.628 23.0376 265.933 23.0666 265.352 22.8339C264.709 22.5769 264.9 22.386 265.838 22.3474C266.688 22.3127 267.163 22.5028 266.896 22.7702ZM298.91 23.0336C299.165 23.446 299.065 23.9736 298.689 24.2063C298.312 24.4391 298.004 24.1016 298.004 23.4565C298.004 22.0985 298.258 21.9801 298.91 23.0336ZM258.837 23.5757C258.57 23.8431 257.874 23.8721 257.293 23.6393C256.65 23.3824 256.841 23.1915 257.78 23.1528C258.63 23.1182 259.105 23.3083 258.837 23.5757ZM241.529 25.2333C240.975 25.4572 240.069 25.4572 239.515 25.2333C238.961 25.0102 239.414 24.8274 240.522 24.8274C241.63 24.8274 242.083 25.0102 241.529 25.2333ZM245.944 25.1866C245.677 25.454 244.981 25.483 244.4 25.2502C243.757 24.9933 243.948 24.8024 244.887 24.7637C245.736 24.7291 246.212 24.9192 245.944 25.1866ZM316.857 27.603C316.589 27.8704 315.894 27.8994 315.313 27.6666C314.67 27.4096 314.861 27.2187 315.8 27.1801C316.649 27.1455 317.124 27.3355 316.857 27.603ZM320.08 27.603C319.813 27.8704 319.117 27.8994 318.536 27.6666C317.893 27.4096 318.084 27.2187 319.023 27.1801C319.872 27.1455 320.348 27.3355 320.08 27.603ZM330.774 29.5328C330.11 29.9621 328.84 30.2827 327.954 30.2456C326.626 30.1901 326.697 30.0644 328.357 29.5328C331.206 28.621 332.186 28.621 330.774 29.5328ZM213.711 30.0193C213.444 30.2867 212.748 30.3157 212.167 30.0829C211.524 29.826 211.715 29.6351 212.654 29.5964C213.503 29.5618 213.979 29.7519 213.711 30.0193ZM208.289 31.1437C208.289 31.5867 207.948 31.9492 207.53 31.9492C207.113 31.9492 206.548 31.5867 206.274 31.1437C206 30.7007 206.342 30.3383 207.032 30.3383C207.723 30.3383 208.289 30.7007 208.289 31.1437ZM200.844 31.6971C200.074 31.8984 198.624 31.9057 197.621 31.7132C196.619 31.5207 197.249 31.3556 199.022 31.3467C200.795 31.3378 201.615 31.4957 200.844 31.6971ZM218.981 31.6721C218.436 31.8928 217.348 31.9065 216.564 31.7019C215.78 31.4973 216.226 31.3169 217.556 31.3008C218.885 31.2847 219.527 31.4514 218.981 31.6721ZM337.624 31.9492C337.35 32.3922 336.694 32.749 336.166 32.7426C335.589 32.7345 335.689 32.418 336.415 31.9492C337.963 30.9488 338.242 30.9488 337.624 31.9492ZM205.468 33.5601C205.742 34.0031 205.38 34.3655 204.662 34.3655C203.945 34.3655 203.583 34.0031 203.857 33.5601C204.131 33.1171 204.493 32.7546 204.662 32.7546C204.832 32.7546 205.194 33.1171 205.468 33.5601ZM5.7708 35.3224C5.51375 35.9644 5.32277 35.7735 5.28409 34.8351C5.24944 33.9862 5.43961 33.511 5.70714 33.7784C5.97468 34.0458 6.00369 34.7409 5.7708 35.3224ZM343.864 34.9535C343.307 35.1492 343.105 35.7308 343.415 36.2463C343.724 36.7626 343.273 36.653 342.412 36.003C341.551 35.353 340.742 34.7642 340.612 34.6942C340.483 34.6241 341.39 34.5742 342.626 34.583C343.864 34.5919 344.421 34.7586 343.864 34.9535ZM4.15915 38.5442C3.90209 39.1862 3.71111 38.9953 3.67243 38.0569C3.63778 37.208 3.82795 36.7328 4.09549 37.0002C4.36302 37.2676 4.39203 37.9627 4.15915 38.5442ZM13.0603 39.6848C12.7928 39.9522 12.0974 39.9812 11.5164 39.7484C10.8733 39.4915 11.0643 39.3006 12.0031 39.2619C12.8524 39.2273 13.3278 39.4174 13.0603 39.6848ZM4.15915 44.1824C3.90209 44.8244 3.71111 44.6335 3.67243 43.6951C3.63778 42.8462 3.82795 42.3709 4.09549 42.6384C4.36302 42.9058 4.39203 43.6009 4.15915 44.1824ZM69.8437 49.7707C64.4173 51.0473 59.7741 56.0387 57.6838 62.8424C54.5394 73.0773 55.8102 80.4271 61.3519 84.0588C63.1787 85.2566 65.2763 85.5119 73.2757 85.5119C84.9054 85.5119 86.4953 85.1301 90.7106 81.3235C95.8687 76.6656 98.6681 69.5703 98.6866 61.1066C98.6987 55.8824 97.0846 52.5567 93.6462 50.7227C90.5454 49.0691 75.3999 48.4634 69.8437 49.7707ZM19.8438 50.5914C15.6954 51.7851 9.86199 58.1393 8.21971 63.2532C6.69992 67.9852 6.40177 75.0128 7.58795 78.1315C8.74753 81.1809 12.352 84.0822 16.1764 85.0447C18.0774 85.5232 25.4346 85.9146 32.5251 85.9146H45.4167L46.096 82.4914L46.7745 79.0682L33.0488 78.6655C18.3014 78.233 16.0838 77.6716 15.1982 74.1453C14.402 70.9726 15.4979 64.0111 17.141 61.8122C20.843 56.8562 21.8728 56.5687 37.0989 56.236L51.1678 55.93L51.6304 53.806C51.885 52.6381 52.2323 51.2301 52.4032 50.676C52.7859 49.4332 24.1275 49.3591 19.8438 50.5914ZM106.045 66.7851C104.218 76.1992 102.724 84.3746 102.724 84.9537C102.725 85.6923 103.731 85.9331 106.094 85.7592L109.462 85.5119L112.098 71.6049C113.548 63.9555 114.955 57.3411 115.224 56.9054C116.341 55.0979 123.069 56.5904 123.932 58.836C124.193 59.5158 123.337 65.6147 122.03 72.3894C120.723 79.1641 119.653 84.9988 119.651 85.3564C119.649 85.7149 121.182 85.8961 123.057 85.7592L126.467 85.5119L129.302 71.0137L132.138 56.5155L134.601 56.2747C135.955 56.1426 138.041 56.4052 139.234 56.8587C142.032 57.9218 142.051 59.9105 139.391 73.5098C138.283 79.1746 137.376 84.2827 137.376 84.8619C137.376 85.5521 138.48 85.9146 140.584 85.9146C144.271 85.9146 143.701 87.2275 146.657 71.9448C147.757 66.2543 148.658 60.0322 148.658 58.1168C148.658 50.0864 147.551 49.6692 126.231 49.6692H109.366L106.045 66.7851ZM169.25 50.2547C165.902 51.1061 161.544 54.6284 159.478 58.153C157.829 60.9649 156.481 66.0811 153.793 79.7166C151.855 89.5488 150.27 97.6847 150.269 97.7951C150.269 97.9054 151.829 97.9964 153.736 97.9964H157.203L158.369 92.1569L159.536 86.3173L171.221 85.8542C183.763 85.3572 184.376 85.2195 189.506 81.7456C196.86 76.7663 200.702 62.4018 196.577 55.3074C193.897 50.6993 190.797 49.6571 180.085 49.7642C174.988 49.815 170.112 50.0357 169.25 50.2547ZM220.024 50.2531C216.978 51.0288 212.303 54.754 209.983 58.2537C205.58 64.8979 204.626 75.5355 208.024 80.0855C211.904 85.2783 212.684 85.4885 229.17 85.7744L244.297 86.037L246.439 75.3036C248.95 62.7216 249.081 59.1341 247.168 55.3074C244.892 50.7525 241.666 49.6563 230.852 49.7642C225.755 49.815 220.883 50.0349 220.024 50.2531ZM259.555 51.0787C259.327 51.8544 257.835 59.3749 256.241 67.7919C254.646 76.2089 253.153 83.7302 252.921 84.5051C252.565 85.6987 253.048 85.9146 256.065 85.9146H259.63L262.21 72.826C263.629 65.6276 264.975 59.1035 265.2 58.3278C265.568 57.0648 266.881 56.9199 277.845 56.9303C284.575 56.9376 290.588 57.2646 291.209 57.6577C292.548 58.505 292.258 61.4787 289.414 76.0478L287.487 85.9146H291C292.932 85.9146 294.512 85.7898 294.512 85.6375C294.512 85.4853 295.6 79.9921 296.93 73.4301C299.588 60.3092 299.82 57.2259 298.384 54.0766C296.571 50.0985 294.437 49.6692 276.475 49.6692C261.452 49.6692 259.933 49.7956 259.555 51.0787ZM306.359 61.5496C302.051 84.6984 302.947 85.9146 324.302 85.9146C334.263 85.9146 336.415 86.1192 336.415 87.0656C336.415 87.6979 335.845 88.7852 335.149 89.4819C334.101 90.529 331.613 90.7473 320.738 90.7473C307.787 90.7473 307.586 90.7739 307.107 92.5596C306.841 93.5567 306.616 95.187 306.611 96.1841C306.6 97.9932 306.623 97.9964 320.378 97.9964C340.885 97.9964 341.252 97.6847 345.239 76.8621C346.534 70.1019 348.274 61.2001 349.107 57.0818L350.62 49.5935L346.997 49.8327L343.374 50.0719L340.742 63.7646C339.294 71.2956 338.091 77.7296 338.068 78.0614C337.995 79.1246 313.481 78.7783 312.402 77.699C310.987 76.2854 311.198 72.9798 313.445 61.3144C314.551 55.5739 315.457 50.6051 315.46 50.2733C315.462 49.9414 313.912 49.6692 312.016 49.6692H308.569L306.359 61.5496ZM89.9047 58.4172C92.8057 62.0007 91.4971 71.1402 87.4309 75.6877L85.1294 78.2628H75.3281C66.4697 78.2628 65.4108 78.1081 64.3133 76.6519C62.6348 74.4248 63.281 65.2321 65.3714 61.6149C67.9363 57.1752 71.249 56.0008 80.4363 56.2771C87.6484 56.4938 88.5042 56.6879 89.9047 58.4172ZM188.735 58.7539C190.54 60.5597 190.963 61.7043 190.963 64.79C190.963 69.5292 188.52 74.4159 184.932 76.8532C182.493 78.5101 181.337 78.6655 171.45 78.6655C161.535 78.6655 160.67 78.5479 161.038 77.256C161.259 76.4803 161.86 73.7281 162.374 71.1385C163.595 64.9881 164.989 61.7695 167.419 59.4941C170.23 56.8627 173.152 56.1474 180.273 56.3496C185.888 56.5091 186.726 56.7475 188.735 58.7539ZM236.866 57.2565C241.283 59.101 241.843 63.6462 239.233 76.4505L238.782 78.6655H228.415C218.748 78.6655 217.902 78.5399 215.885 76.8057C211.776 73.273 212.688 63.3724 217.489 59.3902C221.253 56.2674 231.734 55.1132 236.866 57.2565ZM12.1747 94.1705C11.908 95.1677 11.684 96.4362 11.6783 96.9896C11.6695 97.787 25.0744 97.9964 76.0469 97.9964C145.866 97.9964 141.405 98.2759 141.405 93.9031C141.405 92.3929 139.953 92.3582 77.0333 92.3582H12.6606L12.1747 94.1705ZM167.641 93.3651C167.473 93.9192 167.155 95.187 166.936 96.1841L166.536 97.9964H229.23C297.209 97.9964 292.901 98.2735 292.901 93.9031C292.901 92.3937 291.475 92.3582 230.424 92.3582C181.143 92.3582 167.882 92.5709 167.641 93.3651Z" fill="url(#paint0_linear)"/>
<defs>
<linearGradient id="paint0_linear" x1="179" y1="0" x2="179" y2="98" gradientUnits="userSpaceOnUse">
<stop stop-color="#FF0000"/>
<stop offset="1" stop-color="#002446"/>
</linearGradient>
</defs>
</svg>
