<svg xmlns="http://www.w3.org/2000/svg" width="58" height="45" viewBox="0 0 58 45">
  <defs>
    <linearGradient id="более-100-зарубежных-автомобилей-18-марок-a" x1="7.732%" x2="89.568%" y1="10.471%" y2="87.034%">
      <stop offset="0%" stop-color="#01C6DB"/>
      <stop offset="100%" stop-color="#662D90"/>
    </linearGradient>
  </defs>
  <path fill="url(#более-100-зарубежных-автомобилей-18-марок-a)" fill-rule="evenodd" d="M17.805722,30.8619718 L30.6729154,30.8619718 C29.5530504,29.3180469 28.532659,28.0156088 26.4279808,28.0156088 C26.3488375,28.0156088 26.2682421,28.0174808 26.1859524,28.0212248 C23.0962189,28.1616242 20.2400428,28.8013773 17.805722,30.8619718 Z M26.4279808,26.8456142 C29.2374455,26.8456142 30.5828809,28.7000557 31.6635373,30.1901609 C31.9227496,30.5474773 31.9546974,31.0145391 31.746553,31.4018074 C31.5381666,31.7890756 31.1242982,32.0319665 30.6729154,32.0319665 L17.805722,32.0319665 C17.301577,32.0319665 16.8501942,31.7298739 16.6730294,31.2735759 C16.4956227,30.817512 16.6292223,30.3027144 17.0087227,29.9816679 C19.3522829,27.9978249 22.165136,27.0328133 26.1290758,26.8526342 C26.2309697,26.8479542 26.3302013,26.8456142 26.4279808,26.8456142 Z M21.999395,34.3632744 C22.2738551,34.3632744 22.4986994,34.5804254 22.4986994,34.8460142 C22.4986994,35.111369 22.2738551,35.32852 21.999395,35.32852 L19.0648017,35.32852 C18.7903416,35.32852 18.5654973,35.111369 18.5654973,34.8460142 C18.5654973,34.5804254 18.7903416,34.3632744 19.0648017,34.3632744 L21.999395,34.3632744 Z M53.8924103,41.5901676 C55.6209765,41.5901676 56.7113141,40.834117 56.7861008,39.3674117 C56.8330543,38.442414 56.4445989,37.344725 55.8869656,36.5720605 C54.3164439,34.3958705 51.8867216,33.3789111 49.3538953,32.6259026 C45.6394867,31.5221296 41.8166494,31.3031066 37.9623485,31.3031066 C37.8115648,31.3031066 37.6605392,31.3035746 37.5095135,31.3040426 L37.5015266,31.3040426 C36.9034746,31.3040426 36.1902171,31.0171599 35.7308474,30.6376137 C34.7237676,29.8052795 33.753234,28.8971296 32.9356624,27.8921042 C31.3114103,25.8951573 29.1242004,25.3319219 26.6559956,25.2055625 C26.189365,25.1819286 25.727575,25.1699947 25.2701415,25.1699947 C18.8970518,25.1699947 13.437135,27.4772241 8.83448253,31.8333482 C8.01328045,32.6104586 7.20950441,32.9172312 6.27648525,32.9172312 C5.96160641,32.9172312 5.63220587,32.8821314 5.28223292,32.8187177 C4.50459594,32.6773823 3.71824594,32.5807408 2.93020174,32.4911192 C2.88349027,32.4859712 2.83798895,32.4833972 2.79345574,32.4833972 C1.73651808,32.4833972 1.33789744,33.9309146 2.35078595,34.3897865 C2.52335214,34.4679421 2.71213422,34.5245699 2.91471193,34.5563937 C3.01176528,34.5716037 3.11123892,34.5753477 3.21143864,34.5753477 C3.30824997,34.5753477 3.40554535,34.5718377 3.50235668,34.5718377 C3.63014763,34.5718377 3.75624438,34.5781556 3.87701651,34.6067035 C4.2349764,34.6914111 4.67740416,34.7943707 4.8700587,35.0435795 C4.98139173,35.1874889 4.73113445,35.6737386 4.54332047,35.9397954 C3.61465782,37.2553374 2.58385922,38.5079337 1.72102827,39.8616175 C0.832542313,41.2555491 1.07118223,41.6046755 2.70705163,41.6046755 C2.71818493,41.6046755 2.72931823,41.6046755 2.74069357,41.6046755 C2.83339041,41.6044415 4.33178772,41.6037395 6.75545929,41.6028035 C6.49648899,40.9791964 6.35248214,40.2989615 6.35248214,39.5857328 C6.35248214,36.5954604 8.85965348,34.1712315 11.9525333,34.1712315 C15.0454132,34.1712315 17.5528266,36.5954604 17.5528266,39.5857328 C17.5528266,40.2975575 17.4093038,40.9766224 17.1508175,41.5992935 C25.0399726,41.5964856 34.6828648,41.5936776 42.086753,41.5913376 C41.8306871,40.9707724 41.6883744,40.2945155 41.6883744,39.5857328 C41.6883744,36.5954604 44.1957878,34.1712315 47.2884256,34.1712315 C50.3813055,34.1712315 52.8887188,36.5954604 52.8887188,39.5857328 C52.8887188,40.2933455 52.7468903,40.9684324 52.4915504,41.5880616 C53.2810468,41.5878276 53.7171818,41.5875936 53.7171818,41.5875936 C53.7764787,41.5894656 53.8345655,41.5901676 53.8924103,41.5901676 Z M51.1572483,41.5885296 C51.4890691,40.9913643 51.6785773,40.3097254 51.6785773,39.5857328 C51.6785773,37.2455094 49.7091928,35.3412262 47.2884256,35.3412262 C44.8679004,35.3412262 42.898516,37.2455094 42.898516,39.5857328 C42.898516,40.3106614 43.0880242,40.9932363 43.4208131,41.5908696 C43.4643782,41.6687912 43.51351,41.7434369 43.5619156,41.8183165 C43.5839402,41.8524804 43.6037865,41.8878142 43.6267792,41.9215101 C43.6887385,42.0113657 43.7552962,42.0979453 43.8237903,42.1828869 C43.8344395,42.1959908 43.8441206,42.2100308 43.8550119,42.2231347 C43.9339131,42.3183723 44.0169289,42.4103338 44.1040591,42.4985514 C44.1047851,42.4992534 44.1052692,42.4999554 44.1059953,42.5006574 C44.1950617,42.590981 44.2880006,42.6775606 44.3848119,42.7603962 C45.1595445,43.4235492 46.1746113,43.8300053 47.2884256,43.8300053 C48.403208,43.8300053 49.4192429,43.4230812 50.1942176,42.7587582 C50.2907869,42.6759226 50.3839678,42.589109 50.4730342,42.4987854 C50.4735183,42.4980834 50.4740023,42.4973814 50.4744864,42.4969134 C50.5616166,42.4084618 50.6446323,42.3162663 50.7235335,42.2207947 C50.7336987,42.2086268 50.7426538,42.1957568 50.7525769,42.1833549 C50.822039,42.0977113 50.8890809,42.0099617 50.9517662,41.9191701 C50.9725807,41.8887502 50.9904908,41.8564584 51.0105791,41.8255705 C51.061163,41.7476489 51.111989,41.6697272 51.1572483,41.5885296 Z M15.8155473,41.5999955 C16.1512406,41.0002563 16.342685,40.3141714 16.342685,39.5857328 C16.342685,37.2455094 14.3733006,35.3412262 11.9525333,35.3412262 C9.53200814,35.3412262 7.56262373,37.2455094 7.56262373,39.5857328 C7.56262373,40.3151074 7.75406813,41.0021283 8.09072952,41.6023355 C8.11662655,41.6486673 8.14712211,41.6919571 8.17471334,41.7371189 C8.21513207,41.8028726 8.25434066,41.8693283 8.29814778,41.932976 C8.35792878,42.0193216 8.42255034,42.1021572 8.4888661,42.1840569 C8.50217766,42.2004368 8.51427907,42.2179867 8.52759063,42.2341326 C8.68950757,42.4278838 8.8683665,42.6075949 9.06174712,42.7718622 C9.8350276,43.4284632 10.8450118,43.8300053 11.9525333,43.8300053 C13.061023,43.8300053 14.0719753,43.4277612 14.8454978,42.7699902 C14.9427932,42.6869206 15.0367002,42.600341 15.1264927,42.5097834 C15.1264927,42.5097834 15.1267347,42.5097834 15.1267347,42.5095494 C15.214833,42.4206298 15.2988169,42.3282002 15.3789282,42.2322607 C15.3922398,42.2161147 15.4043412,42.1987988 15.4174107,42.1824189 C15.4837265,42.1005193 15.5483481,42.0172156 15.6083711,41.93087 C15.6458855,41.8763483 15.6790433,41.8192525 15.7138954,41.7630928 C15.7477794,41.708571 15.7843257,41.6559213 15.8155473,41.5999955 Z M56.8792817,35.9025896 C57.625455,36.9361629 58.052635,38.2858687 57.9947903,39.4249755 C57.889992,41.4822941 56.3180181,42.7601622 53.8924103,42.7601622 C53.8289989,42.7601622 53.7653454,42.7594602 53.7004818,42.7575883 C53.5768054,42.7578222 52.9121956,42.7578222 51.8252464,42.7582902 C50.8077594,44.115952 49.1554321,45 47.2884256,45 C45.4228714,45 43.7715121,44.117356 42.7537831,42.7610982 C35.0613971,42.7634382 24.7231575,42.7667142 16.4813672,42.7695222 C15.4631541,44.120866 13.8144572,45 11.9525333,45 C10.0920617,45 8.44457492,44.12227 7.42611976,42.7725642 C4.6110884,42.7735002 2.84403966,42.7744362 2.74408196,42.7746702 L2.70705163,42.7746702 C2.02598395,42.7746702 0.758481648,42.7746702 0.209561425,41.8241665 C-0.342263138,40.8685149 0.32960747,39.8141157 0.690955748,39.2476043 C1.24931508,38.3715123 1.87253799,37.5394121 2.4751885,36.7349238 C2.71842696,36.4103673 2.96699004,36.0780888 3.20974444,35.7453423 C3.09211868,35.7453423 2.91471193,35.7415983 2.72060522,35.7111785 C2.41056694,35.6625067 2.11335617,35.5745231 1.83720186,35.4490997 C0.870782787,35.0112877 0.377771105,34.0387881 0.61011829,33.0297847 C0.842949531,32.0191433 1.74063256,31.3134026 2.79345574,31.3134026 C2.88494244,31.3134026 2.9786074,31.3185505 3.07130425,31.3290805 C3.97528001,31.431806 4.73524893,31.5286816 5.50586709,31.6688469 C5.79605904,31.7214967 6.04801052,31.7472366 6.27648525,31.7472366 C6.92923562,31.7472366 7.42515164,31.5298516 7.98786748,30.99727 C12.8937815,26.3542632 18.7085118,24 25.2701415,24 C25.7469373,24 26.2348664,24.0126359 26.7198911,24.0372058 C28.9642197,24.1520993 31.8068423,24.6114392 33.8868336,27.1688135 C34.5640289,28.0011477 35.4244395,28.8449479 36.5171974,29.7481837 C36.7747155,29.9608888 37.2164172,30.134048 37.5041889,30.134048 C37.6569087,30.13358 37.8096286,30.133112 37.9625905,30.133112 C41.4841025,30.133112 45.63392,30.2964432 49.7094349,31.5076217 C52.2265294,32.2557163 55.0466433,33.3629992 56.8792817,35.9025896 Z M4,3.47904762 L7.58422939,1.02666667 L9.25686977,1.02666667 L9.25686977,17.6933333 L7.58422939,17.6933333 L7.58422939,2.90761905 L4,5.33619048 L4,3.47904762 Z M19.2329749,17.86 C18.3886855,17.86 17.62804,17.7211125 16.9510155,17.4433333 C16.273991,17.1655542 15.6965376,16.717146 15.218638,16.0980952 C14.7407384,15.4790445 14.3743541,14.6814335 14.1194743,13.7052381 C13.8645945,12.7290427 13.7371565,11.5346102 13.7371565,10.1219048 L13.7371565,8.59809524 C13.7371565,7.20126286 13.8685769,6.01476679 14.1314217,5.03857143 C14.3942665,4.06237607 14.7646332,3.264765 15.2425329,2.64571429 C15.7204325,2.02666357 16.2978859,1.57428714 16.9749104,1.28857143 C17.6519349,1.00285571 18.4046155,0.86 19.2329749,0.86 C20.0613343,0.86 20.8140149,0.9988875 21.4910394,1.27666667 C22.1680639,1.55444583 22.7455173,2.00285405 23.223417,2.62190476 C23.7013166,3.24095548 24.0716833,4.04253476 24.3345281,5.02666667 C24.5973729,6.01079857 24.7287933,7.20126286 24.7287933,8.59809524 L24.7287933,10.1219048 C24.7287933,11.5187371 24.5973729,12.7052332 24.3345281,13.6814286 C24.0716833,14.6576239 23.7013166,15.455235 23.223417,16.0742857 C22.7455173,16.6933364 22.1680639,17.1457129 21.4910394,17.4314286 C20.8140149,17.7171443 20.0613343,17.86 19.2329749,17.86 Z M19.2329749,16.2885714 C19.8064545,16.2885714 20.3281538,16.1893661 20.7980884,15.9909524 C21.2680231,15.7925387 21.6662668,15.4552405 21.9928315,14.9790476 C22.3193963,14.5028548 22.5702898,13.8679405 22.7455197,13.0742857 C22.9207496,12.280631 23.0083632,11.2965138 23.0083632,10.1219048 L23.0083632,8.59809524 C23.0083632,7.42348619 22.9207496,6.44333726 22.7455197,5.65761905 C22.5702898,4.87190083 22.3154139,4.24095476 21.9808841,3.7647619 C21.6463544,3.28856905 21.2481106,2.94730262 20.786141,2.74095238 C20.3241713,2.53460214 19.8064545,2.43142857 19.2329749,2.43142857 C18.6594953,2.43142857 18.1377961,2.53063393 17.6678614,2.72904762 C17.1979268,2.92746131 16.799683,3.26475952 16.4731183,3.74095238 C16.1465535,4.21714524 15.89566,4.85205952 15.7204301,5.64571429 C15.5452002,6.43936905 15.4575866,7.42348619 15.4575866,8.59809524 L15.4575866,10.1219048 C15.4575866,11.2965138 15.5452002,12.2766627 15.7204301,13.062381 C15.89566,13.8480992 16.150536,14.4790452 16.4850657,14.9552381 C16.8195955,15.431431 17.2178392,15.7726974 17.6798088,15.9790476 C18.1417785,16.1853979 18.6594953,16.2885714 19.2329749,16.2885714 Z M34.1075269,17.86 C33.2632375,17.86 32.502592,17.7211125 31.8255675,17.4433333 C31.148543,17.1655542 30.5710896,16.717146 30.09319,16.0980952 C29.6152903,15.4790445 29.2489061,14.6814335 28.9940263,13.7052381 C28.7391465,12.7290427 28.6117085,11.5346102 28.6117085,10.1219048 L28.6117085,8.59809524 C28.6117085,7.20126286 28.7431289,6.01476679 29.0059737,5.03857143 C29.2688185,4.06237607 29.6391852,3.264765 30.1170848,2.64571429 C30.5949845,2.02666357 31.1724379,1.57428714 31.8494624,1.28857143 C32.5264869,1.00285571 33.2791675,0.86 34.1075269,0.86 C34.9358863,0.86 35.6885669,0.9988875 36.3655914,1.27666667 C37.0426159,1.55444583 37.6200693,2.00285405 38.0979689,2.62190476 C38.5758686,3.24095548 38.9462352,4.04253476 39.20908,5.02666667 C39.4719249,6.01079857 39.6033453,7.20126286 39.6033453,8.59809524 L39.6033453,10.1219048 C39.6033453,11.5187371 39.4719249,12.7052332 39.20908,13.6814286 C38.9462352,14.6576239 38.5758686,15.455235 38.0979689,16.0742857 C37.6200693,16.6933364 37.0426159,17.1457129 36.3655914,17.4314286 C35.6885669,17.7171443 34.9358863,17.86 34.1075269,17.86 Z M34.1075269,16.2885714 C34.6810065,16.2885714 35.2027057,16.1893661 35.6726404,15.9909524 C36.142575,15.7925387 36.5408188,15.4552405 36.8673835,14.9790476 C37.1939483,14.5028548 37.4448418,13.8679405 37.6200717,13.0742857 C37.7953016,12.280631 37.8829152,11.2965138 37.8829152,10.1219048 L37.8829152,8.59809524 C37.8829152,7.42348619 37.7953016,6.44333726 37.6200717,5.65761905 C37.4448418,4.87190083 37.1899658,4.24095476 36.8554361,3.7647619 C36.5209063,3.28856905 36.1226626,2.94730262 35.660693,2.74095238 C35.1987233,2.53460214 34.6810065,2.43142857 34.1075269,2.43142857 C33.5340473,2.43142857 33.012348,2.53063393 32.5424134,2.72904762 C32.0724787,2.92746131 31.674235,3.26475952 31.3476703,3.74095238 C31.0211055,4.21714524 30.7702119,4.85205952 30.5949821,5.64571429 C30.4197522,6.43936905 30.3321386,7.42348619 30.3321386,8.59809524 L30.3321386,10.1219048 C30.3321386,11.2965138 30.4197522,12.2766627 30.5949821,13.062381 C30.7702119,13.8480992 31.0250879,14.4790452 31.3596177,14.9552381 C31.6941474,15.431431 32.0923912,15.7726974 32.5543608,15.9790476 C33.0163305,16.1853979 33.5340473,16.2885714 34.1075269,16.2885714 Z M43.4862605,8.36 L47.90681,8.36 L47.90681,3.88380952 L49.5794504,3.88380952 L49.5794504,8.36 L54,8.36 L54,9.88380952 L49.5794504,9.88380952 L49.5794504,14.36 L47.90681,14.36 L47.90681,9.88380952 L43.4862605,9.88380952 L43.4862605,8.36 Z"/>
</svg>
