<svg xmlns="http://www.w3.org/2000/svg" width="42" height="48" viewBox="0 0 42 48">
  <defs>
    <linearGradient id="client-a" x1="7.732%" x2="89.568%" y1="10.471%" y2="87.034%">
      <stop offset="0%" stop-color="#01C6DB"/>
      <stop offset="100%" stop-color="#662D90"/>
    </linearGradient>
  </defs>
  <path fill="url(#client-a)" fill-rule="evenodd" d="M25.1837849,16.875 C24.6689407,16.875 24.252951,16.455 24.252951,15.9375 C24.252951,15.42 24.6689407,15 25.1837849,15 C25.6976052,15 26.1146187,15.42 26.1146187,15.9375 C26.1146187,16.455 25.6976052,16.875 25.1837849,16.875 Z M15.8754462,16.875 C15.3606019,16.875 14.9446123,16.455 14.9446123,15.9375 C14.9446123,15.42 15.3606019,15 15.8754462,15 C16.3892665,15 16.80628,15.42 16.80628,15.9375 C16.80628,16.455 16.3892665,16.875 15.8754462,16.875 Z M18.041087,23.31885 C17.5760424,23.0980688 17.3767509,22.5395063 17.5960553,22.0711313 C17.8148944,21.6027563 18.3697644,21.4021313 18.834809,21.6229125 C19.3660359,21.8752875 19.9361717,22.0030688 20.5292059,22.0030688 C21.1092085,22.0030688 21.6688259,21.879975 22.1920476,21.6379125 C22.6592331,21.4215375 23.2119622,21.6276938 23.4267987,22.0979438 C23.6413559,22.568475 23.4370379,23.1251625 22.9697593,23.3415375 C22.2007974,23.6975063 21.3797089,23.8780688 20.5292059,23.8780688 C19.6599002,23.8780688 18.822522,23.6898188 18.041087,23.31885 Z M39.1964649,46.125 L39.1964649,38.0409375 C39.1964649,34.1788125 34.535035,30.8445 30.4615198,30.5409375 L26.978898,38.422125 C26.8756685,38.65575 26.6818689,38.8370625 26.4425515,38.9235 C26.2055612,39.0091875 25.9412044,38.9948438 25.7121262,38.8795312 L25.1048502,38.5733437 L24.2951178,40.9280625 L25.4710402,46.125 L39.1964649,46.125 Z M1.86164913,38.0409375 L1.86164913,46.125 L15.5507713,46.125 L16.7644856,40.9138125 L16.009207,38.545125 L15.3459878,38.8795312 C15.118399,38.9938125 14.8547868,39.0098438 14.6155625,38.9235 C14.3762451,38.8370625 14.1824455,38.65575 14.079216,38.422125 L10.5965942,30.5409375 C6.52307899,30.844125 1.86164913,34.1788125 1.86164913,38.0409375 Z M14.7275418,27.641625 L12.3171475,29.8223438 L15.3842451,36.763875 L19.197313,34.8435 L14.7275418,27.641625 Z M10.3322374,16.5 C10.3322374,22.1290312 14.8416621,26.8125 20.5387377,26.8125 C26.2542438,26.8125 30.8105825,22.1144062 30.8105825,16.5 L30.8105825,14.374875 L28.1471876,10.5120938 C26.0757099,12.2900625 23.6264067,13.125 20.5296155,13.125 C17.4360822,13.125 14.9886407,12.2918437 12.9175354,10.517625 L10.3322374,14.3331562 L10.3322374,16.5 Z M18.6770699,1.875 C14.0755858,1.875 10.3322374,5.65978125 10.3322374,10.3125 L10.3322374,11.0068125 L11.9909833,8.55871875 C12.1481081,8.3265 12.4004571,8.1778125 12.678218,8.15334375 C12.9556995,8.12878125 13.2302025,8.23059375 13.4251191,8.4316875 C15.3187144,10.3806562 17.5098973,11.25 20.5296155,11.25 C23.549706,11.25 25.7404235,10.3806562 27.6327157,8.4316875 C27.8267946,8.23171875 28.0987842,8.12953125 28.3758935,8.15296875 C28.6526304,8.17640625 28.9046071,8.32284375 29.0627558,8.55253125 L30.8105825,11.0874375 L30.8105825,10.3125 C30.8105825,5.65978125 27.0378198,1.875 22.4004054,1.875 L18.6770699,1.875 Z M21.8615457,34.8435 L25.673962,36.763875 L28.7409665,29.8223437 L26.3305722,27.64125 L21.8615457,34.8435 Z M20.5292432,33.451875 L23.7587713,28.2480937 C22.7138172,28.5373125 21.6302335,28.687125 20.5387377,28.687125 C19.4366304,28.687125 18.3450415,28.5344062 17.2945955,28.2403125 L20.5292432,33.451875 Z M22.6657862,39.9375 L23.4257189,37.7278125 L20.5296155,36.2687813 L17.6942025,37.6966875 L18.4083382,39.9375 L22.6657862,39.9375 Z M18.46726,41.8125 L17.4629833,46.125 L23.5617138,46.125 L22.5858275,41.8125 L18.46726,41.8125 Z M41.0581326,38.0409375 L41.0581326,47.0625 C41.0581326,47.5802812 40.6413983,48 40.1272988,48 L0.930815255,48 C0.416715708,48 -1.86166775e-05,47.5802812 -1.86166775e-05,47.0625 L-1.86166775e-05,38.0409375 C-1.86166775e-05,32.875125 5.84021926,28.842375 10.8260447,28.6512187 L13.3945877,26.326875 C10.3300964,24.0494062 8.47056962,20.389875 8.47056962,16.5 L8.47056962,10.3125 C8.47056962,4.609875 13.0207648,0 18.6770699,0 L22.4004054,0 C28.0642503,0 32.6722503,4.626375 32.6722503,10.3125 L32.6722503,16.5 C32.6722503,20.3965312 30.787684,24.063 27.6828877,26.3445 L30.2320693,28.6512187 C35.2287855,28.84275 41.0581326,32.8857188 41.0581326,38.0409375 Z M32.6304559,41.8125 C33.1445554,41.8125 33.5612897,42.2322188 33.5612897,42.75 C33.5612897,43.2677812 33.1445554,43.6875 32.6304559,43.6875 L28.9071204,43.6875 C28.3930208,43.6875 27.9762865,43.2677812 27.9762865,42.75 C27.9762865,42.2322188 28.3930208,41.8125 28.9071204,41.8125 L32.6304559,41.8125 Z M36.302521,41.8125 C36.8163413,41.8125 37.2333549,42.2325 37.2333549,42.75 C37.2333549,43.2675 36.8163413,43.6875 36.302521,43.6875 C35.7887007,43.6875 35.3716871,43.2675 35.3716871,42.75 C35.3716871,42.2325 35.7887007,41.8125 36.302521,41.8125 Z"/>
</svg>
