<svg xmlns="http://www.w3.org/2000/svg" xmlns:xlink="http://www.w3.org/1999/xlink" width="48" height="48" viewBox="0 0 48 48">
  <defs>
    <path id="время-оформления-10-20-минут-a" d="M0.882,0.01153125 C0.44109375,0.01275 0.0819375,0.3736875 0.08315625,0.8146875 L0.08746875,2.4166875 C0.0886875,2.8576875 0.449625,3.21178125 0.89053125,3.2105625 C1.33153125,3.20934375 1.69059375,2.85346875 1.68946875,2.41246875 L1.68515625,0.81046875 C1.68403125,0.370125 1.32421875,0.01153125 0.88415625,0.01153125 C0.8835,0.01153125 0.88275,0.01153125 0.882,0.01153125"/>
    <linearGradient id="время-оформления-10-20-минут-b" x1="-572.177%" x2="1821.688%" y1="-275.108%" y2="975.924%">
      <stop offset="0%" stop-color="#01C6DB"/>
      <stop offset="100%" stop-color="#662D90"/>
    </linearGradient>
    <path id="время-оформления-10-20-минут-d" d="M2.489625,0.08203125 L0.89259375,0.08634375 C0.45046875,0.0875625 0.09253125,0.4485 0.09365625,0.8895 C0.094875,1.3305 0.45478125,1.6895625 0.8968125,1.6884375 L2.49384375,1.68421875 C2.9398125,1.68290625 3.2938125,1.32196875 3.2926875,0.88096875 C3.29146875,0.44071875 2.93671875,0.08203125 2.49178125,0.08203125 C2.49103125,0.08203125 2.490375,0.08203125 2.489625,0.08203125"/>
    <linearGradient id="время-оформления-10-20-минут-e" x1="-856.302%" x2="345.719%" y1="-1828.463%" y2="662.866%">
      <stop offset="0%" stop-color="#01C6DB"/>
      <stop offset="100%" stop-color="#662D90"/>
    </linearGradient>
    <path id="время-оформления-10-20-минут-g" d="M2.4781875,0.0928125 L0.88115625,0.097125 C0.4351875,0.09834375 0.0811875,0.45928125 0.0823125,0.90028125 C0.0834375,1.34128125 0.4395,1.70025 0.885375,1.69921875 L2.48240625,1.69490625 C2.9244375,1.6936875 3.28246875,1.33275 3.28134375,0.89175 C3.280125,0.4515 2.92134375,0.0928125 2.48034375,0.0928125 C2.47959375,0.0928125 2.47884375,0.0928125 2.4781875,0.0928125"/>
    <linearGradient id="время-оформления-10-20-минут-h" x1="-269.763%" x2="932.259%" y1="-612.698%" y2="1878.631%">
      <stop offset="0%" stop-color="#01C6DB"/>
      <stop offset="100%" stop-color="#662D90"/>
    </linearGradient>
    <path id="время-оформления-10-20-минут-j" d="M0.929625,0.49415625 L0.13228125,1.88334375 C-0.08971875,2.26696875 0.04471875,2.7545625 0.42815625,2.97553125 C0.5535,3.05025 0.69046875,3.0808125 0.82640625,3.08053125 C1.10446875,3.0796875 1.3730625,2.93409375 1.521375,2.6806875 L2.31871875,1.2915 C2.53575,0.907875 2.40140625,0.42028125 2.02284375,0.19828125 C1.8980625,0.1273125 1.76175,0.09375 1.62721875,0.09365625 C1.34821875,0.09365625 1.07671875,0.238125 0.929625,0.49415625"/>
    <linearGradient id="время-оформления-10-20-минут-k" x1="-617.34%" x2="986.491%" y1="-507.536%" y2="832.356%">
      <stop offset="0%" stop-color="#01C6DB"/>
      <stop offset="100%" stop-color="#662D90"/>
    </linearGradient>
    <path id="время-оформления-10-20-минут-m" d="M0.14625,0.45009375 C-0.07575,0.8338125 0.05859375,1.32534375 0.44221875,1.54340625 L1.82728125,2.34075 C1.95646875,2.41434375 2.0925,2.445 2.2295625,2.444625 C2.5025625,2.443875 2.77228125,2.30315625 2.9195625,2.04478125 C3.14146875,1.66115625 3.00721875,1.1735625 2.6236875,0.9515625 L1.2354375,0.15421875 C1.1120625,0.08371875 0.976875,0.05034375 0.8431875,0.05034375 C0.56521875,0.05034375 0.29334375,0.19453125 0.14625,0.45009375"/>
    <linearGradient id="время-оформления-10-20-минут-n" x1="-1049.358%" x2="237.687%" y1="-1377.736%" y2="293.783%">
      <stop offset="0%" stop-color="#01C6DB"/>
      <stop offset="100%" stop-color="#662D90"/>
    </linearGradient>
    <path id="время-оформления-10-20-минут-p" d="M0.1764375,0.44371875 C-0.0455625,0.82734375 0.0886875,1.31503125 0.4723125,1.53684375 L1.86046875,2.32921875 C1.98553125,2.4039375 2.1226875,2.43853125 2.25965625,2.43815625 C2.53659375,2.43740625 2.80228125,2.2918125 2.94965625,2.03334375 C3.17165625,1.65084375 3.0373125,1.162125 2.6536875,0.94509375 L1.26853125,0.14784375 C1.1431875,0.07509375 1.00603125,0.04059375 0.87065625,0.04059375 C0.59278125,0.04059375 0.32221875,0.1858125 0.1764375,0.44371875"/>
    <linearGradient id="время-оформления-10-20-минут-q" x1="-176.857%" x2="1110.201%" y1="-244.193%" y2="1425.039%">
      <stop offset="0%" stop-color="#01C6DB"/>
      <stop offset="100%" stop-color="#662D90"/>
    </linearGradient>
    <path id="время-оформления-10-20-минут-s" d="M0.4095,0.1340625 C0.0271875,0.35709375 -0.1005,0.84646875 0.1194375,1.22784375 L0.92315625,2.61271875 C1.07278125,2.8663125 1.3423125,3.01059375 1.6201875,3.0099375 C1.75621875,3.00946875 1.8931875,2.977125 2.01796875,2.902875 C2.400375,2.67871875 2.53209375,2.19046875 2.30803125,1.8080625 L1.503375,0.42421875 C1.35684375,0.168375 1.0875,0.02653125 0.811125,0.02653125 C0.67434375,0.02653125 0.53578125,0.06121875 0.4095,0.1340625"/>
    <linearGradient id="время-оформления-10-20-минут-t" x1="-224.495%" x2="1374.073%" y1="-180.333%" y2="1161.117%">
      <stop offset="0%" stop-color="#01C6DB"/>
      <stop offset="100%" stop-color="#662D90"/>
    </linearGradient>
    <path id="время-оформления-10-20-минут-v" d="M1.845375,0.15009375 L0.46565625,0.95475 C0.08325,1.17778125 -0.0485625,1.66715625 0.1755,2.04853125 C0.3241875,2.302125 0.590625,2.44640625 0.8675625,2.44565625 C1.004625,2.44528125 1.1415,2.40984375 1.26628125,2.33859375 L2.65021875,1.534875 C3.03253125,1.31090625 3.16425,0.8225625 2.9401875,0.44015625 C2.79103125,0.1843125 2.52271875,0.0406875 2.24690625,0.0406875 C2.11040625,0.0406875 1.97203125,0.07584375 1.845375,0.15009375"/>
    <linearGradient id="время-оформления-10-20-минут-w" x1="-712.354%" x2="576.548%" y1="-934.234%" y2="729.858%">
      <stop offset="0%" stop-color="#01C6DB"/>
      <stop offset="100%" stop-color="#662D90"/>
    </linearGradient>
    <path id="время-оформления-10-20-минут-y" d="M1.7925,0.15403125 L0.41175,0.9586875 C0.03028125,1.178625 -0.10134375,1.6670625 0.122625,2.04946875 C0.2713125,2.30709375 0.54075,2.45034375 0.81871875,2.44959375 C0.95175,2.44921875 1.091625,2.41378125 1.21640625,2.33953125 L2.59725,1.5388125 C2.97965625,1.31484375 3.111375,0.8265 2.88740625,0.44409375 C2.74003125,0.18871875 2.4706875,0.04528125 2.19403125,0.04528125 C2.05734375,0.04528125 1.91896875,0.08025 1.7925,0.15403125"/>
    <linearGradient id="время-оформления-10-20-минут-z" x1="-496.686%" x2="792.198%" y1="-656.045%" y2="1008.501%">
      <stop offset="0%" stop-color="#01C6DB"/>
      <stop offset="100%" stop-color="#662D90"/>
    </linearGradient>
    <path id="время-оформления-10-20-минут-B" d="M11.737875,0.3091875 L5.0488125,7.03396875 C3.81665625,6.24421875 2.067,6.378 1.01071875,7.4398125 C0.4074375,8.04646875 0.07753125,8.84821875 0.079875,9.70434375 C0.082125,10.55925 0.41625,11.3633437 1.0228125,11.9667187 C1.62646875,12.5672812 2.4324375,12.9010312 3.28734375,12.8987812 C4.14234375,12.8963437 4.94653125,12.5582812 5.54690625,11.954625 C6.1501875,11.3480625 6.48009375,10.5421875 6.47784375,9.6871875 C6.4764375,9.1711875 6.3421875,8.6795625 6.111,8.23415625 L12.8739375,1.435125 C13.1860312,1.122375 13.1847187,0.61828125 12.8708437,0.3061875 C12.7149375,0.151125 12.5106563,0.0736875 12.3062812,0.0736875 C12.1004063,0.0736875 11.8944375,0.15225 11.737875,0.3091875 M2.1489375,10.8308438 C1.8470625,10.5315938 1.67803125,10.1290313 1.6768125,9.70003125 C1.6756875,9.274125 1.84275,8.870625 2.14284375,8.56978125 C2.44696875,8.26396875 2.8485,8.098875 3.27459375,8.09775 C3.70059375,8.09653125 4.10296875,8.2595625 4.408875,8.5636875 C4.71065625,8.8629375 4.8796875,9.2655 4.88090625,9.6915 C4.8819375,10.1205 4.7150625,10.5239063 4.414875,10.82475 C4.11159375,11.129625 3.69496875,11.28225 3.27853125,11.28225 C2.865,11.2823438 2.45165625,11.131875 2.1489375,10.8308438"/>
    <linearGradient id="время-оформления-10-20-минут-C" x1="-94.241%" x2="200.932%" y1="-108.08%" y2="203.971%">
      <stop offset="0%" stop-color="#01C6DB"/>
      <stop offset="100%" stop-color="#662D90"/>
    </linearGradient>
    <path id="время-оформления-10-20-минут-E" d="M24,0 C10.7451563,0 0,10.7451563 0,24 C0,37.25475 10.7451563,48 24,48 C37.2548437,48 48,37.25475 48,24 C48,10.7451563 37.2548437,0 24,0 Z M1.602,24 C1.602,11.629875 11.629875,1.602 24,1.602 C36.370125,1.602 46.398,11.629875 46.398,24 C46.398,36.3700313 36.370125,46.398 24,46.398 C11.629875,46.398 1.602,36.3700313 1.602,24 Z"/>
    <linearGradient id="время-оформления-10-20-минут-F" x1="9.258%" x2="89.146%" y1="7.37%" y2="90.96%">
      <stop offset="0%" stop-color="#01C6DB"/>
      <stop offset="100%" stop-color="#662D90"/>
    </linearGradient>
  </defs>
  <g fill="none" fill-rule="evenodd">
    <g transform="translate(23.063 3.188)">
      <mask id="время-оформления-10-20-минут-c" fill="#fff">
        <use xlink:href="#время-оформления-10-20-минут-a"/>
      </mask>
      <path fill="url(#время-оформления-10-20-минут-b)" d="M0.882,0.01153125 C0.44109375,0.01275 0.0819375,0.3736875 0.08315625,0.8146875 L0.08746875,2.4166875 C0.0886875,2.8576875 0.449625,3.21178125 0.89053125,3.2105625 C1.33153125,3.20934375 1.69059375,2.85346875 1.68946875,2.41246875 L1.68515625,0.81046875 C1.68403125,0.370125 1.32421875,0.01153125 0.88415625,0.01153125 C0.8835,0.01153125 0.88275,0.01153125 0.882,0.01153125" mask="url(#время-оформления-10-20-минут-c)"/>
    </g>
    <g transform="translate(41.906 23.063)">
      <mask id="время-оформления-10-20-минут-f" fill="#fff">
        <use xlink:href="#время-оформления-10-20-минут-d"/>
      </mask>
      <path fill="url(#время-оформления-10-20-минут-e)" d="M2.489625,0.08203125 L0.89259375,0.08634375 C0.45046875,0.0875625 0.09253125,0.4485 0.09365625,0.8895 C0.094875,1.3305 0.45478125,1.6895625 0.8968125,1.6884375 L2.49384375,1.68421875 C2.9398125,1.68290625 3.2938125,1.32196875 3.2926875,0.88096875 C3.29146875,0.44071875 2.93671875,0.08203125 2.49178125,0.08203125 C2.49103125,0.08203125 2.490375,0.08203125 2.489625,0.08203125" mask="url(#время-оформления-10-20-минут-f)"/>
    </g>
    <g transform="translate(2.719 23.156)">
      <mask id="время-оформления-10-20-минут-i" fill="#fff">
        <use xlink:href="#время-оформления-10-20-минут-g"/>
      </mask>
      <path fill="url(#время-оформления-10-20-минут-h)" d="M2.4781875,0.0928125 L0.88115625,0.097125 C0.4351875,0.09834375 0.0811875,0.45928125 0.0823125,0.90028125 C0.0834375,1.34128125 0.4395,1.70025 0.885375,1.69921875 L2.48240625,1.69490625 C2.9244375,1.6936875 3.28246875,1.33275 3.28134375,0.89175 C3.280125,0.4515 2.92134375,0.0928125 2.48034375,0.0928125 C2.47959375,0.0928125 2.47884375,0.0928125 2.4781875,0.0928125" mask="url(#время-оформления-10-20-минут-i)"/>
    </g>
    <g transform="translate(32.531 5.813)">
      <mask id="время-оформления-10-20-минут-l" fill="#fff">
        <use xlink:href="#время-оформления-10-20-минут-j"/>
      </mask>
      <path fill="url(#время-оформления-10-20-минут-k)" d="M0.929625,0.49415625 L0.13228125,1.88334375 C-0.08971875,2.26696875 0.04471875,2.7545625 0.42815625,2.97553125 C0.5535,3.05025 0.69046875,3.0808125 0.82640625,3.08053125 C1.10446875,3.0796875 1.3730625,2.93409375 1.521375,2.6806875 L2.31871875,1.2915 C2.53575,0.907875 2.40140625,0.42028125 2.02284375,0.19828125 C1.8980625,0.1273125 1.76175,0.09375 1.62721875,0.09365625 C1.34821875,0.09365625 1.07671875,0.238125 0.929625,0.49415625" mask="url(#время-оформления-10-20-минут-l)"/>
    </g>
    <g transform="translate(39.469 32.906)">
      <mask id="время-оформления-10-20-минут-o" fill="#fff">
        <use xlink:href="#время-оформления-10-20-минут-m"/>
      </mask>
      <path fill="url(#время-оформления-10-20-минут-n)" d="M0.14625,0.45009375 C-0.07575,0.8338125 0.05859375,1.32534375 0.44221875,1.54340625 L1.82728125,2.34075 C1.95646875,2.41434375 2.0925,2.445 2.2295625,2.444625 C2.5025625,2.443875 2.77228125,2.30315625 2.9195625,2.04478125 C3.14146875,1.66115625 3.00721875,1.1735625 2.6236875,0.9515625 L1.2354375,0.15421875 C1.1120625,0.08371875 0.976875,0.05034375 0.8431875,0.05034375 C0.56521875,0.05034375 0.29334375,0.19453125 0.14625,0.45009375" mask="url(#время-оформления-10-20-минут-o)"/>
    </g>
    <g transform="translate(5.438 13.406)">
      <mask id="время-оформления-10-20-минут-r" fill="#fff">
        <use xlink:href="#время-оформления-10-20-минут-p"/>
      </mask>
      <path fill="url(#время-оформления-10-20-минут-q)" d="M0.1764375,0.44371875 C-0.0455625,0.82734375 0.0886875,1.31503125 0.4723125,1.53684375 L1.86046875,2.32921875 C1.98553125,2.4039375 2.1226875,2.43853125 2.25965625,2.43815625 C2.53659375,2.43740625 2.80228125,2.2918125 2.94965625,2.03334375 C3.17165625,1.65084375 3.0373125,1.162125 2.6536875,0.94509375 L1.26853125,0.14784375 C1.1431875,0.07509375 1.00603125,0.04059375 0.87065625,0.04059375 C0.59278125,0.04059375 0.32221875,0.1858125 0.1764375,0.44371875" mask="url(#время-оформления-10-20-минут-r)"/>
    </g>
    <g transform="translate(12.938 5.906)">
      <mask id="время-оформления-10-20-минут-u" fill="#fff">
        <use xlink:href="#время-оформления-10-20-минут-s"/>
      </mask>
      <path fill="url(#время-оформления-10-20-минут-t)" d="M0.4095,0.1340625 C0.0271875,0.35709375 -0.1005,0.84646875 0.1194375,1.22784375 L0.92315625,2.61271875 C1.07278125,2.8663125 1.3423125,3.01059375 1.6201875,3.0099375 C1.75621875,3.00946875 1.8931875,2.977125 2.01796875,2.902875 C2.400375,2.67871875 2.53209375,2.19046875 2.30803125,1.8080625 L1.503375,0.42421875 C1.35684375,0.168375 1.0875,0.02653125 0.811125,0.02653125 C0.67434375,0.02653125 0.53578125,0.06121875 0.4095,0.1340625" mask="url(#время-оформления-10-20-минут-u)"/>
    </g>
    <g transform="translate(39.188 12.938)">
      <mask id="время-оформления-10-20-минут-x" fill="#fff">
        <use xlink:href="#время-оформления-10-20-минут-v"/>
      </mask>
      <path fill="url(#время-оформления-10-20-минут-w)" d="M1.845375,0.15009375 L0.46565625,0.95475 C0.08325,1.17778125 -0.0485625,1.66715625 0.1755,2.04853125 C0.3241875,2.302125 0.590625,2.44640625 0.8675625,2.44565625 C1.004625,2.44528125 1.1415,2.40984375 1.26628125,2.33859375 L2.65021875,1.534875 C3.03253125,1.31090625 3.16425,0.8225625 2.9401875,0.44015625 C2.79103125,0.1843125 2.52271875,0.0406875 2.24690625,0.0406875 C2.11040625,0.0406875 1.97203125,0.07584375 1.845375,0.15009375" mask="url(#время-оформления-10-20-минут-x)"/>
    </g>
    <g transform="translate(5.344 32.625)">
      <mask id="время-оформления-10-20-минут-A" fill="#fff">
        <use xlink:href="#время-оформления-10-20-минут-y"/>
      </mask>
      <path fill="url(#время-оформления-10-20-минут-z)" d="M1.7925,0.15403125 L0.41175,0.9586875 C0.03028125,1.178625 -0.10134375,1.6670625 0.122625,2.04946875 C0.2713125,2.30709375 0.54075,2.45034375 0.81871875,2.44959375 C0.95175,2.44921875 1.091625,2.41378125 1.21640625,2.33953125 L2.59725,1.5388125 C2.97965625,1.31484375 3.111375,0.8265 2.88740625,0.44409375 C2.74003125,0.18871875 2.4706875,0.04528125 2.19403125,0.04528125 C2.05734375,0.04528125 1.91896875,0.08025 1.7925,0.15403125" mask="url(#время-оформления-10-20-минут-A)"/>
    </g>
    <g transform="translate(20.719 13.406)">
      <mask id="время-оформления-10-20-минут-D" fill="#fff">
        <use xlink:href="#время-оформления-10-20-минут-B"/>
      </mask>
      <path fill="url(#время-оформления-10-20-минут-C)" d="M11.737875,0.3091875 L5.0488125,7.03396875 C3.81665625,6.24421875 2.067,6.378 1.01071875,7.4398125 C0.4074375,8.04646875 0.07753125,8.84821875 0.079875,9.70434375 C0.082125,10.55925 0.41625,11.3633437 1.0228125,11.9667187 C1.62646875,12.5672812 2.4324375,12.9010312 3.28734375,12.8987812 C4.14234375,12.8963437 4.94653125,12.5582812 5.54690625,11.954625 C6.1501875,11.3480625 6.48009375,10.5421875 6.47784375,9.6871875 C6.4764375,9.1711875 6.3421875,8.6795625 6.111,8.23415625 L12.8739375,1.435125 C13.1860312,1.122375 13.1847187,0.61828125 12.8708437,0.3061875 C12.7149375,0.151125 12.5106563,0.0736875 12.3062812,0.0736875 C12.1004063,0.0736875 11.8944375,0.15225 11.737875,0.3091875 M2.1489375,10.8308438 C1.8470625,10.5315938 1.67803125,10.1290313 1.6768125,9.70003125 C1.6756875,9.274125 1.84275,8.870625 2.14284375,8.56978125 C2.44696875,8.26396875 2.8485,8.098875 3.27459375,8.09775 C3.70059375,8.09653125 4.10296875,8.2595625 4.408875,8.5636875 C4.71065625,8.8629375 4.8796875,9.2655 4.88090625,9.6915 C4.8819375,10.1205 4.7150625,10.5239063 4.414875,10.82475 C4.11159375,11.129625 3.69496875,11.28225 3.27853125,11.28225 C2.865,11.2823438 2.45165625,11.131875 2.1489375,10.8308438" mask="url(#время-оформления-10-20-минут-D)"/>
    </g>
    <mask id="время-оформления-10-20-минут-G" fill="#fff">
      <use xlink:href="#время-оформления-10-20-минут-E"/>
    </mask>
    <path fill="url(#время-оформления-10-20-минут-F)" d="M24,0 C10.7451563,0 0,10.7451563 0,24 C0,37.25475 10.7451563,48 24,48 C37.2548437,48 48,37.25475 48,24 C48,10.7451563 37.2548437,0 24,0 Z M1.602,24 C1.602,11.629875 11.629875,1.602 24,1.602 C36.370125,1.602 46.398,11.629875 46.398,24 C46.398,36.3700313 36.370125,46.398 24,46.398 C11.629875,46.398 1.602,36.3700313 1.602,24 Z" mask="url(#время-оформления-10-20-минут-G)"/>
  </g>
</svg>
