<svg xmlns="http://www.w3.org/2000/svg" width="56" height="55" viewBox="0 0 56 55">
  <defs>
    <linearGradient id="piggy_bank-a" x1="7.732%" x2="89.568%" y1="10.471%" y2="87.034%">
      <stop offset="0%" stop-color="#01C6DB"/>
      <stop offset="100%" stop-color="#662D90"/>
    </linearGradient>
  </defs>
  <path fill="url(#piggy_bank-a)" fill-rule="evenodd" d="M47.0262406,29.9184834 C47.0262406,31.390904 45.8307719,32.5888556 44.3615375,32.5888556 C42.8923031,32.5888556 41.6968344,31.3910136 41.6968344,29.9184834 C41.6968344,29.4674292 42.0617094,29.101763 42.5117875,29.101763 C42.9618656,29.101763 43.3267406,29.4673196 43.3267406,29.9184834 C43.3267406,30.4903302 43.7910375,30.9555244 44.3615375,30.9555244 C44.9321469,30.9555244 45.3963344,30.4903302 45.3963344,29.9184834 C45.3963344,29.4674292 45.7612094,29.101763 46.2112875,29.101763 C46.6613656,29.101763 47.0262406,29.4673196 47.0262406,29.9184834 Z M2.28823438,28.5962863 C2.4784375,28.9895749 3.35496875,29.32729 4.48317188,29.5616409 C4.46326563,29.224693 4.37817188,28.9546086 4.31265625,28.791396 C4.03451563,28.0985374 3.50951563,27.6852994 3.13479688,27.6352066 C3.10964063,27.6318087 3.0821875,27.6293972 3.05276563,27.6293972 C2.91353125,27.6293972 2.72923438,27.6835456 2.5291875,27.9483687 C2.40296875,28.1156369 2.20390625,28.422003 2.28823438,28.5962863 Z M46.0772813,19.5282889 C46.3939219,16.8151679 46.0496094,15.2211874 45.7871094,14.9409091 C45.7217031,14.9152598 45.6234844,14.9013391 45.4915781,14.9013391 C44.6176719,14.9013391 42.2653437,15.5135232 38.1852188,17.3852609 C37.8970156,17.5174533 37.6878906,17.7726304 37.625875,18.0675968 L37.625875,18.0677065 C37.0084531,21.0046555 37.5636406,23.2032569 39.2312813,24.4258713 C40.8970625,25.6470607 43.1157344,25.5417234 44.0767031,24.9961835 C44.9221719,24.5163013 45.7635938,22.2166375 46.0772813,19.5282889 Z M53.8610625,29.2352158 C55.1404219,29.6459327 56,30.8263464 56,32.1726033 L56,35.9843673 C56,37.3307339 55.1404219,38.5111476 53.8610625,38.9220837 L50.1655,40.1084164 C49.9603125,40.1742934 49.7843281,40.3195295 49.6700312,40.5174891 C48.0843125,43.2639322 45.6302656,45.5304931 42.3742813,47.2558986 L41.2217969,53.3712724 C41.0435156,54.315143 40.2187188,55 39.2604844,55 L35.4119063,55 C34.4537812,55 33.6289844,54.3152526 33.4507031,53.3717109 L32.8569063,50.2274852 C31.2215313,50.4589861 29.5435,50.5762712 27.8635,50.5762712 C26.6390469,50.5762712 25.4278281,50.5133538 24.2579531,50.3891631 L23.6946719,53.3714917 C23.5165,54.3150334 22.6917031,54.9998904 21.7334688,54.9998904 L17.8848906,54.9998904 C16.9266562,54.9998904 16.1018594,54.3150334 15.9236875,53.3714917 L14.8157188,47.6041366 C12.1307813,46.1394985 10.0245469,44.191909 8.55345313,41.8133245 C6.958,39.2333823 6.14895313,36.200961 6.14895313,32.8000235 C6.14895313,32.3429407 6.164375,31.8938595 6.19215625,31.4512455 C6.19204687,31.4515743 6.19204687,31.4517936 6.19204687,31.4521224 C6.05051563,31.4390785 5.90275,31.4240617 5.74896875,31.4066333 C5.59628125,31.7406217 5.39765625,32.0636488 5.15385938,32.3699053 C3.60970313,34.3103699 2.0024375,34.6805303 1.001,34.6805303 C0.93734375,34.6805303 0.876203125,34.6791053 0.8176875,34.676365 C0.360828125,34.6554291 0,34.2816515 0,33.8234726 L0,33.8194169 C0,33.3547708 0.371,32.9819798 0.8343125,32.9661956 C1.62575,32.9391214 2.844625,32.6516086 3.87920313,31.3512792 C3.93717187,31.2783871 3.99010937,31.2058238 4.03823438,31.1335894 C2.28725,30.756633 1.23210937,30.1570543 0.821625,29.3094233 C0.578484375,28.8071802 0.45171875,27.9923232 1.22926562,26.9626262 C1.76553125,26.2525584 2.53826563,25.9070608 3.35026563,26.0160153 C4.3806875,26.1537979 5.3519375,27.00395 5.82476563,28.1818426 C6.03914062,28.7158732 6.13757813,29.2661264 6.12335937,29.8114471 C6.2015625,29.8195584 6.28009375,29.8263544 6.35851563,29.8334792 L6.35851563,29.8335888 C7.09734375,24.7794802 9.78085938,20.8000096 14.230125,18.2207251 C14.6198281,17.9951432 15.1183594,18.128322 15.3436719,18.5187606 C15.5689844,18.9093089 15.435875,19.4089212 15.0462812,19.634832 C12.7517031,20.9649759 10.9695469,22.7085771 9.74935938,24.817406 C8.44178125,27.077171 7.77875,29.7627793 7.77875,32.7999139 C7.77875,38.8110465 10.5273438,43.4589323 15.7274688,46.2412186 C16.0721094,46.4255863 16.3116406,46.7505864 16.3850312,47.1328041 L17.5247187,53.0652352 C17.5578594,53.2408339 17.709125,53.3664495 17.8848906,53.3664495 L21.7334688,53.3664495 C21.9092344,53.3664495 22.0605,53.2409435 22.0932031,53.0678659 L22.7162031,49.7695254 C22.8407812,49.1098792 23.4618125,48.6544406 24.1284531,48.7312787 C25.3340938,48.8718016 26.5907031,48.9428303 27.8636094,48.9428303 C29.5746719,48.9428303 31.2827812,48.8155705 32.9405781,48.5643394 C33.6285469,48.4598789 34.2677344,48.9135638 34.3967969,49.5965574 L35.0525,53.0678659 C35.0850937,53.2408339 35.2363594,53.3664495 35.412125,53.3664495 L39.2607031,53.3664495 C39.4365781,53.3664495 39.5877344,53.2409435 39.6204375,53.0678659 L40.8042031,46.7867584 C40.8775938,46.3971967 41.1217187,46.0684698 41.474125,45.8846501 C44.5247031,44.2951637 46.8074687,42.2141762 48.2595313,39.6994533 C48.5767187,39.1498578 49.0771094,38.7426485 49.6683906,38.5526906 L53.3640625,37.3663578 C53.9659531,37.1731115 54.3703125,36.6180354 54.3703125,35.9845865 L54.3703125,32.1728226 C54.3703125,31.5395929 53.9659531,30.9842976 53.3640625,30.7910513 L51.07025,30.0546766 C50.2727969,29.7985129 49.6458594,29.1651736 49.3933125,28.3602913 C48.96325,26.9899197 48.3138906,25.7028533 47.4632813,24.535045 C47.2535,24.2469842 47.0309219,23.9656097 46.7960938,23.6909215 C46.2880469,25.0665545 45.6462344,25.9828028 44.8801719,26.4176344 C44.2029219,26.8020444 43.2807812,27.0201726 42.2806562,27.0201726 C40.9515313,27.0201726 39.484375,26.6353242 38.2691094,25.7443963 C37.2380312,24.988401 36.5107969,23.9640751 36.1078594,22.6996985 C35.6595313,21.2930452 35.6337187,19.6212401 36.0311875,17.7309778 C36.0387344,17.6949154 36.0480313,17.6595107 36.0571094,17.6239963 C35.7683594,17.5522003 35.4769844,17.4838023 35.1842969,17.4201176 C34.9645625,17.3723267 34.7415469,17.3265088 34.5168906,17.2827735 C34.1059688,17.9063573 33.6327031,18.4931114 33.0965469,19.0304303 C32.4905,19.6377915 31.8312969,20.1600936 31.1338125,20.5976655 C31.1335937,20.5976655 31.1334844,20.5975558 31.1332656,20.5975558 C31.6398906,20.7294193 32.1427969,20.8777246 32.640125,21.0443351 C33.0670156,21.1873791 33.2973594,21.6501617 33.154625,22.0779781 C33.0405469,22.4198585 32.7227031,22.6360138 32.3817813,22.6360138 C32.2961406,22.6360138 32.2090781,22.6224219 32.1233281,22.5937035 C27.6787656,21.1046218 22.7831406,21.1046218 18.3385781,22.5937035 C17.9117969,22.7366378 17.4499063,22.5057945 17.3072812,22.0779781 C17.1645469,21.6500521 17.3948906,21.1873791 17.8217813,21.0443351 C18.3191094,20.8777246 18.8220156,20.7295289 19.32875,20.5975558 C19.3285312,20.5975558 19.3283125,20.5976655 19.3280938,20.5976655 C18.6307187,20.1600936 17.9714063,19.6377915 17.3653594,19.0304303 C15.264375,16.9248897 14.1072969,14.1253944 14.1072969,11.1477792 C14.1072969,8.17016396 15.264375,5.37077819 17.3653594,3.26512798 C19.4663438,1.15958738 22.2597812,1.13686838e-13 25.2309531,1.13686838e-13 C28.202125,1.13686838e-13 30.9955625,1.15958738 33.0965469,3.26512798 C33.9401563,4.11067643 34.6376406,5.076031 35.1695312,6.13477517 C35.3719844,6.53759997 35.2102188,7.0287722 34.8081562,7.23155476 C34.4062031,7.43455654 33.9160937,7.27233049 33.7136406,6.86939608 C33.2598437,5.96652045 32.6645156,5.14245599 31.9438437,4.42033087 C30.15075,2.62323898 27.7665937,1.6335505 25.2308437,1.6335505 C22.6950937,1.6335505 20.3109375,2.62323898 18.5178437,4.42033087 C16.72475,6.21731315 15.7372031,8.60642048 15.7372031,11.1478888 C15.7372031,13.6892474 16.72475,16.0784644 18.5178437,17.8754467 C19.5220156,18.8817962 20.6976875,19.6127999 21.9509062,20.0731711 C24.1240781,19.7675723 26.3376094,19.7675723 28.5107812,20.0731711 C29.7638906,19.6127999 30.9396719,18.8817962 31.9438437,17.8754467 C33.6245,16.1910361 34.6086563,13.9539609 34.7148594,11.5763628 C34.734875,11.1256375 35.1169219,10.7746593 35.5654688,10.7970201 C36.0152187,10.8170792 36.3633594,11.1987488 36.3432344,11.6494742 C36.2787031,13.0954782 35.9346094,14.4962124 35.3455156,15.7859095 C35.4066563,15.7988437 35.4692188,15.8105722 35.5299219,15.8238353 C36.0339219,15.9334475 36.5348594,16.0555554 37.0249687,16.1875285 C37.1738281,16.0761625 37.3346094,15.9789365 37.5067656,15.9000157 C44.7765938,12.5649552 46.1197187,13.2695424 46.5610469,13.5014818 C47.3804844,13.9316 47.7954531,15.1521318 47.8295781,17.2331192 C47.8534219,18.6878922 47.6694531,20.3717547 47.3310469,21.859521 L47.3310469,21.8593018 C47.8599844,22.4028687 48.3441875,22.9738386 48.7796094,23.5717731 C49.735,24.8836118 50.4645313,26.3297254 50.9479688,27.8701056 C51.0419219,28.1694565 51.2734687,28.404465 51.56725,28.4988411 L53.8610625,29.2352158 Z M24.54375,7.52666366 L24.54375,10.6177275 L25.9875,10.6177275 C26.64375,10.6177275 27.1228125,10.4775335 27.4246875,10.1968167 C27.7265625,9.91620945 27.8775,9.53914351 27.8775,9.06561884 C27.8775,8.59209417 27.7265625,8.21722047 27.4246875,7.94099775 C27.1228125,7.66477503 26.64375,7.52666366 25.9875,7.52666366 L24.54375,7.52666366 Z M21.7875,10.6177275 L22.96875,10.6177275 L22.96875,6.13239658 L25.9875,6.13239658 C27.22125,6.13239658 28.1203125,6.38680648 28.6846875,6.89529744 C29.2490625,7.40389801 29.53125,8.11418501 29.53125,9.02615845 C29.53125,9.92936291 29.246875,10.6396499 28.678125,11.1570195 C28.1092656,11.6744986 27.2123906,11.9330738 25.9875,11.9330738 L24.54375,11.9330738 L24.54375,12.7222816 L27.5625,12.7222816 L27.5625,13.8797863 L24.54375,13.8797863 L24.54375,15.3398207 L22.96875,15.3398207 L22.96875,13.8797863 L21.7875,13.8797863 L21.7875,12.7222816 L22.96875,12.7222816 L22.96875,11.9330738 L21.7875,11.9330738 L21.7875,10.6177275 Z"/>
</svg>
